<svg width="21" height="21" viewBox="0 0 21 21" fill="none" xmlns="http://www.w3.org/2000/svg">
    <path
        d="M1.75 18.375V16.625C2.30417 16.625 2.71979 16.4792 2.99687 16.1875C3.27396 15.8958 3.82083 15.75 4.6375 15.75C5.45417 15.75 6.01562 15.8958 6.32188 16.1875C6.62812 16.4792 7.04375 16.625 7.56875 16.625C8.09375 16.625 8.50938 16.4792 8.81562 16.1875C9.12187 15.8958 9.68333 15.75 10.5 15.75C11.3167 15.75 11.8781 15.8958 12.1844 16.1875C12.4906 16.4792 12.9062 16.625 13.4312 16.625C13.9563 16.625 14.3719 16.4792 14.6781 16.1875C14.9844 15.8958 15.5458 15.75 16.3625 15.75C17.1792 15.75 17.726 15.8958 18.0031 16.1875C18.2802 16.4792 18.6958 16.625 19.25 16.625V18.375C18.3896 18.375 17.8245 18.2292 17.5547 17.9375C17.2849 17.6458 16.8875 17.5 16.3625 17.5C15.8375 17.5 15.4219 17.6458 15.1156 17.9375C14.8094 18.2292 14.2479 18.375 13.4312 18.375C12.6146 18.375 12.0531 18.2292 11.7469 17.9375C11.4406 17.6458 11.025 17.5 10.5 17.5C9.975 17.5 9.55937 17.6458 9.25312 17.9375C8.94688 18.2292 8.38542 18.375 7.56875 18.375C6.75208 18.375 6.19062 18.2292 5.88438 17.9375C5.57812 17.6458 5.1625 17.5 4.6375 17.5C4.1125 17.5 3.7151 17.6458 3.44531 17.9375C3.17552 18.2292 2.61042 18.375 1.75 18.375ZM1.75 14.4375V12.6875C2.30417 12.6875 2.71979 12.5417 2.99687 12.25C3.27396 11.9583 3.82083 11.8125 4.6375 11.8125C5.45417 11.8125 6.01927 11.9583 6.33281 12.25C6.64635 12.5417 7.05833 12.6875 7.56875 12.6875C8.09375 12.6875 8.50938 12.5417 8.81562 12.25C9.12187 11.9583 9.68333 11.8125 10.5 11.8125C11.3167 11.8125 11.8781 11.9583 12.1844 12.25C12.4906 12.5417 12.9062 12.6875 13.4312 12.6875C13.9563 12.6875 14.3719 12.5417 14.6781 12.25C14.9844 11.9583 15.5458 11.8125 16.3625 11.8125C17.1792 11.8125 17.726 11.9583 18.0031 12.25C18.2802 12.5417 18.6958 12.6875 19.25 12.6875V14.4375C18.3896 14.4375 17.8245 14.2917 17.5547 14C17.2849 13.7083 16.8875 13.5625 16.3625 13.5625C15.8375 13.5625 15.4328 13.7083 15.1484 14C14.8641 14.2917 14.2917 14.4375 13.4312 14.4375C12.6 14.4375 12.0349 14.2917 11.7359 14C11.437 13.7083 11.025 13.5625 10.5 13.5625C9.94583 13.5625 9.53385 13.7083 9.26406 14C8.99427 14.2917 8.42917 14.4375 7.56875 14.4375C6.70833 14.4375 6.13594 14.2917 5.85156 14C5.56719 13.7083 5.1625 13.5625 4.6375 13.5625C4.1125 13.5625 3.7151 13.7083 3.44531 14C3.17552 14.2917 2.61042 14.4375 1.75 14.4375ZM6.0375 9.975L8.94688 7.06562L8.07188 6.19062C7.59062 5.70937 7.08021 5.35938 6.54063 5.14062C6.00104 4.92188 5.3375 4.8125 4.55 4.8125V2.625C5.64375 2.625 6.54792 2.74531 7.2625 2.98594C7.97708 3.22656 8.67708 3.68958 9.3625 4.375L14.9625 9.975C14.7146 10.1354 14.474 10.263 14.2406 10.3578C14.0073 10.4526 13.7375 10.5 13.4312 10.5C12.9062 10.5 12.4906 10.3542 12.1844 10.0625C11.8781 9.77083 11.3167 9.625 10.5 9.625C9.68333 9.625 9.12187 9.77083 8.81562 10.0625C8.50938 10.3542 8.09375 10.5 7.56875 10.5C7.2625 10.5 6.99271 10.4526 6.75938 10.3578C6.52604 10.263 6.28542 10.1354 6.0375 9.975ZM14.6125 2.625C15.225 2.625 15.7427 2.8401 16.1656 3.27031C16.5885 3.70052 16.8 4.21458 16.8 4.8125C16.8 5.425 16.5885 5.94271 16.1656 6.36562C15.7427 6.78854 15.225 7 14.6125 7C14 7 13.4823 6.78854 13.0594 6.36562C12.6365 5.94271 12.425 5.425 12.425 4.8125C12.425 4.21458 12.6365 3.70052 13.0594 3.27031C13.4823 2.8401 14 2.625 14.6125 2.625Z"
        fill="#0D0D0D" />
</svg>