<svg width="17" height="17" viewBox="0 0 17 17" fill="none" xmlns="http://www.w3.org/2000/svg">
    <path
        d="M12.5 9.16667L11.3333 10.3059L9.16667 12.3059V10.3059L10.3333 9.16667H4.16667V7.5H10.3333L9.16667 6.30591V4.16667L11.3333 6.30591L13.3333 8.30591M8.33333 0C7.23899 0 6.15535 0.215548 5.1443 0.634337C4.13326 1.05313 3.2146 1.66696 2.44078 2.44078C0.877974 4.00358 0 6.1232 0 8.33333C0 10.5435 0.877974 12.6631 2.44078 14.2259C3.2146 14.9997 4.13326 15.6135 5.1443 16.0323C6.15535 16.4511 7.23899 16.6667 8.33333 16.6667C10.5435 16.6667 12.6631 15.7887 14.2259 14.2259C15.7887 12.6631 16.6667 10.5435 16.6667 8.33333C16.6667 7.23899 16.4511 6.15535 16.0323 5.1443C15.6135 4.13326 14.9997 3.2146 14.2259 2.44078C13.4521 1.66696 12.5334 1.05313 11.5224 0.634337C10.5113 0.215548 9.42768 0 8.33333 0Z"
        fill="#0D0D0D" />
</svg>