<svg width="32" height="32" viewBox="0 0 32 32" fill="none" xmlns="http://www.w3.org/2000/svg">
    <path
        d="M17.5 29V21.4651L14.875 18.9535L13.625 24.4791L5 22.7209L5.5 20.2093L11.5 21.4651L13.5 11.293L11.25 12.1721V16.4419H8.75V10.5395L13.6875 8.40465C14.4167 8.0907 14.9531 7.88663 15.2969 7.79244C15.6406 7.69826 15.9583 7.65116 16.25 7.65116C16.6875 7.65116 17.0938 7.76628 17.4688 7.99651C17.8438 8.22674 18.1458 8.53023 18.375 8.90698L19.625 10.9163C20.1667 11.7953 20.901 12.5174 21.8281 13.0826C22.7552 13.6477 23.8125 13.9302 25 13.9302V16.4419C23.625 16.4419 22.3385 16.1541 21.1406 15.5785C19.9427 15.0029 18.9375 14.2442 18.125 13.3023L17.375 17.0698L20 19.5814V29H17.5ZM18.125 7.02326C17.4375 7.02326 16.849 6.77733 16.3594 6.28547C15.8698 5.7936 15.625 5.20233 15.625 4.51163C15.625 3.82093 15.8698 3.22965 16.3594 2.73779C16.849 2.24593 17.4375 2 18.125 2C18.8125 2 19.401 2.24593 19.8906 2.73779C20.3802 3.22965 20.625 3.82093 20.625 4.51163C20.625 5.20233 20.3802 5.7936 19.8906 6.28547C19.401 6.77733 18.8125 7.02326 18.125 7.02326Z"
        fill="#0D0D0D" />
</svg>