<svg width="32" height="32" viewBox="0 0 32 32" fill="none" xmlns="http://www.w3.org/2000/svg">
    <path
        d="M5.40008 14.6667H9.20008C9.06675 13.8223 8.81119 13.0334 8.43341 12.3001C8.05564 11.5667 7.57786 10.9112 7.00008 10.3334C6.60008 10.9779 6.26119 11.6612 5.98341 12.3834C5.70564 13.1056 5.51119 13.8667 5.40008 14.6667ZM22.8001 14.6667H26.6001C26.489 13.8667 26.2945 13.1056 26.0167 12.3834C25.739 11.6612 25.4001 10.9779 25.0001 10.3334C24.4223 10.9112 23.9445 11.5667 23.5667 12.3001C23.189 13.0334 22.9334 13.8223 22.8001 14.6667ZM7.00008 21.6667C7.57786 21.089 8.05564 20.4334 8.43341 19.7001C8.81119 18.9667 9.06675 18.1779 9.20008 17.3334H5.40008C5.51119 18.1334 5.70564 18.8945 5.98341 19.6167C6.26119 20.339 6.60008 21.0223 7.00008 21.6667ZM25.0001 21.6667C25.4001 21.0223 25.739 20.339 26.0167 19.6167C26.2945 18.8945 26.489 18.1334 26.6001 17.3334H22.8001C22.9334 18.1779 23.189 18.9667 23.5667 19.7001C23.9445 20.4334 24.4223 21.089 25.0001 21.6667ZM11.9334 14.6667H14.6667V5.40008C13.489 5.57786 12.3945 5.90564 11.3834 6.38341C10.3723 6.86119 9.46675 7.48897 8.66675 8.26675C9.53341 9.11119 10.2501 10.0723 10.8167 11.1501C11.3834 12.2279 11.7556 13.4001 11.9334 14.6667ZM17.3334 14.6667H20.0667C20.2445 13.4001 20.6167 12.2279 21.1834 11.1501C21.7501 10.0723 22.4667 9.11119 23.3334 8.26675C22.5334 7.48897 21.6279 6.86119 20.6167 6.38341C19.6056 5.90564 18.5112 5.57786 17.3334 5.40008V14.6667ZM14.6667 26.6001V17.3334H11.9334C11.7556 18.6001 11.3834 19.7723 10.8167 20.8501C10.2501 21.9279 9.53341 22.889 8.66675 23.7334C9.46675 24.5112 10.3723 25.139 11.3834 25.6167C12.3945 26.0945 13.489 26.4223 14.6667 26.6001ZM17.3334 26.6001C18.5112 26.4223 19.6056 26.0945 20.6167 25.6167C21.6279 25.139 22.5334 24.5112 23.3334 23.7334C22.4667 22.889 21.7501 21.9279 21.1834 20.8501C20.6167 19.7723 20.2445 18.6001 20.0667 17.3334H17.3334V26.6001ZM16.0001 29.3334C14.1556 29.3334 12.4223 28.9834 10.8001 28.2834C9.17786 27.5834 7.76675 26.6334 6.56675 25.4334C5.36675 24.2334 4.41675 22.8223 3.71675 21.2001C3.01675 19.5779 2.66675 17.8445 2.66675 16.0001C2.66675 14.1556 3.01675 12.4223 3.71675 10.8001C4.41675 9.17786 5.36675 7.76675 6.56675 6.56675C7.76675 5.36675 9.17786 4.41675 10.8001 3.71675C12.4223 3.01675 14.1556 2.66675 16.0001 2.66675C17.8445 2.66675 19.5779 3.01675 21.2001 3.71675C22.8223 4.41675 24.2334 5.36675 25.4334 6.56675C26.6334 7.76675 27.5834 9.17786 28.2834 10.8001C28.9834 12.4223 29.3334 14.1556 29.3334 16.0001C29.3334 17.8445 28.9834 19.5779 28.2834 21.2001C27.5834 22.8223 26.6334 24.2334 25.4334 25.4334C24.2334 26.6334 22.8223 27.5834 21.2001 28.2834C19.5779 28.9834 17.8445 29.3334 16.0001 29.3334Z"
        fill="#0D0D0D" />
</svg>