<svg width="32" height="32" viewBox="0 0 32 32" fill="none" xmlns="http://www.w3.org/2000/svg">
    <path
        d="M7.83333 28C7.19167 28 6.64236 27.765 6.18542 27.295C5.72847 26.825 5.5 26.26 5.5 25.6V8.8C5.5 8.14 5.72847 7.575 6.18542 7.105C6.64236 6.635 7.19167 6.4 7.83333 6.4H9V4H11.3333V6.4H20.6667V4H23V6.4H24.1667C24.8083 6.4 25.3576 6.635 25.8146 7.105C26.2715 7.575 26.5 8.14 26.5 8.8V25.6C26.5 26.26 26.2715 26.825 25.8146 27.295C25.3576 27.765 24.8083 28 24.1667 28H7.83333ZM7.83333 25.6H24.1667V13.6H7.83333V25.6ZM7.83333 11.2H24.1667V8.8H7.83333V11.2Z"
        fill="#999999" />
</svg>