<svg width="32" height="32" viewBox="0 0 32 32" fill="none" xmlns="http://www.w3.org/2000/svg">
    <path
        d="M5 29V22.5C6.925 21.2 8.33594 19.8458 9.23281 18.4375C10.1297 17.0292 10.7422 15.7833 11.0703 14.7H7.625V12.1H10.5781C10.2719 11.6233 10.0312 11.1142 9.85625 10.5725C9.68125 10.0308 9.59375 9.45667 9.59375 8.85C9.59375 7.225 10.168 5.84375 11.3164 4.70625C12.4648 3.56875 13.8594 3 15.5 3C17.1406 3 18.5352 3.56875 19.6836 4.70625C20.832 5.84375 21.4062 7.225 21.4062 8.85C21.4062 9.45667 21.3187 10.0308 21.1437 10.5725C20.9687 11.1142 20.7281 11.6233 20.4219 12.1H23.375V14.7H19.9297C20.2578 15.7833 20.8703 17.0292 21.7672 18.4375C22.6641 19.8458 24.075 21.2 26 22.5V29H5ZM7.625 26.4H23.375V23.8C21.3625 22.24 19.9078 20.6312 19.0109 18.9737C18.1141 17.3162 17.5125 15.8917 17.2062 14.7H13.7937C13.4875 15.8917 12.8859 17.3162 11.9891 18.9737C11.0922 20.6312 9.6375 22.24 7.625 23.8V26.4ZM15.5 12.1C16.4187 12.1 17.1953 11.7858 17.8297 11.1575C18.4641 10.5292 18.7812 9.76 18.7812 8.85C18.7812 7.94 18.4641 7.17083 17.8297 6.5425C17.1953 5.91417 16.4187 5.6 15.5 5.6C14.5812 5.6 13.8047 5.91417 13.1703 6.5425C12.5359 7.17083 12.2187 7.94 12.2187 8.85C12.2187 9.76 12.5359 10.5292 13.1703 11.1575C13.8047 11.7858 14.5812 12.1 15.5 12.1Z"
        fill="#0D0D0D" />
</svg>