<svg width="24" height="25" viewBox="0 0 24 25" fill="none" xmlns="http://www.w3.org/2000/svg">
    <path
        d="M9 3.73787V1.79663H15V3.73787H9ZM11 14.4147H13V8.59098H11V14.4147ZM12 22.1797C10.7667 22.1797 9.60417 21.9492 8.5125 21.4881C7.42083 21.0271 6.46667 20.4002 5.65 19.6075C4.83333 18.8149 4.1875 17.8887 3.7125 16.8291C3.2375 15.7695 3 14.6412 3 13.4441C3 12.247 3.2375 11.1186 3.7125 10.059C4.1875 8.99945 4.83333 8.07332 5.65 7.28064C6.46667 6.48797 7.42083 5.86111 8.5125 5.40006C9.60417 4.93902 10.7667 4.7085 12 4.7085C13.0333 4.7085 14.025 4.87027 14.975 5.19381C15.925 5.51735 16.8167 5.98648 17.65 6.60121L19.05 5.24234L20.45 6.60121L19.05 7.96008C19.6833 8.76893 20.1667 9.6344 20.5 10.5565C20.8333 11.4786 21 12.4411 21 13.4441C21 14.6412 20.7625 15.7695 20.2875 16.8291C19.8125 17.8887 19.1667 18.8149 18.35 19.6075C17.5333 20.4002 16.5792 21.0271 15.4875 21.4881C14.3958 21.9492 13.2333 22.1797 12 22.1797ZM12 20.2384C13.9333 20.2384 15.5833 19.5752 16.95 18.2487C18.3167 16.9221 19 15.3206 19 13.4441C19 11.5676 18.3167 9.96603 16.95 8.63951C15.5833 7.313 13.9333 6.64974 12 6.64974C10.0667 6.64974 8.41667 7.313 7.05 8.63951C5.68333 9.96603 5 11.5676 5 13.4441C5 15.3206 5.68333 16.9221 7.05 18.2487C8.41667 19.5752 10.0667 20.2384 12 20.2384Z"
        fill="#0D0D0D" />
</svg>