<svg width="32" height="32" viewBox="0 0 32 32" fill="none" xmlns="http://www.w3.org/2000/svg">
    <path
        d="M12.2666 31.8668L9.93325 30.5335L13.9333 23.6002L11.6666 22.2668L9.66659 25.7335L7.33325 24.4002L14.1999 12.5335C13.3555 11.6668 12.7221 10.6779 12.2999 9.56683C11.8777 8.45572 11.6666 7.31127 11.6666 6.1335C11.6666 5.3335 11.7666 4.53905 11.9666 3.75016C12.1666 2.96127 12.4888 2.20016 12.9333 1.46683L15.1999 2.80016C14.8888 3.31127 14.6666 3.83905 14.5333 4.3835C14.3999 4.92794 14.3333 5.48905 14.3333 6.06683C14.3333 7.24461 14.6221 8.35016 15.1999 9.3835C15.7777 10.4168 16.5999 11.2446 17.6666 11.8668L20.6666 13.6002C22.0444 14.4002 23.0555 15.5502 23.6999 17.0502C24.3444 18.5502 24.6666 19.9557 24.6666 21.2668C24.6666 22.1113 24.5555 22.9335 24.3333 23.7335C24.111 24.5335 23.7999 25.2891 23.3999 26.0002L21.0666 24.6668C21.3777 24.1335 21.5999 23.5891 21.7333 23.0335C21.8666 22.4779 21.9333 21.9113 21.9333 21.3335C21.9333 20.6224 21.8333 19.9335 21.6333 19.2668C21.4333 18.6002 21.111 17.9779 20.6666 17.4002L12.2666 31.8668ZM21.3333 12.0002C20.5999 12.0002 19.9721 11.7391 19.4499 11.2168C18.9277 10.6946 18.6666 10.0668 18.6666 9.3335C18.6666 8.60016 18.9277 7.97238 19.4499 7.45016C19.9721 6.92794 20.5999 6.66683 21.3333 6.66683C22.0666 6.66683 22.6944 6.92794 23.2166 7.45016C23.7388 7.97238 23.9999 8.60016 23.9999 9.3335C23.9999 10.0668 23.7388 10.6946 23.2166 11.2168C22.6944 11.7391 22.0666 12.0002 21.3333 12.0002ZM17.9999 5.3335C17.4221 5.3335 16.9444 5.1335 16.5666 4.7335C16.1888 4.3335 15.9999 3.86683 15.9999 3.3335C15.9999 2.75572 16.1999 2.27794 16.5999 1.90016C16.9999 1.52238 17.4666 1.3335 17.9999 1.3335C18.5777 1.3335 19.0555 1.5335 19.4333 1.9335C19.811 2.3335 19.9999 2.80016 19.9999 3.3335C19.9999 3.91127 19.7999 4.38905 19.3999 4.76683C18.9999 5.14461 18.5333 5.3335 17.9999 5.3335Z"
        fill="#0D0D0D" />
</svg>