<svg width="32" height="32" viewBox="0 0 32 32" fill="none" xmlns="http://www.w3.org/2000/svg">
    <path
        d="M8.82671 28V23.2C8.82671 22.74 8.94224 22.325 9.17329 21.955C9.40433 21.585 9.71239 21.29 10.0975 21.07L15.7581 18.1V16L11.7437 18.07C11.5126 18.19 11.272 18.28 11.0217 18.34C10.7714 18.4 10.5211 18.43 10.2708 18.43C9.67389 18.43 9.11071 18.27 8.58123 17.95C8.05174 17.63 7.6426 17.17 7.35379 16.57C7.08424 16.03 6.96871 15.455 7.00722 14.845C7.04573 14.235 7.22864 13.67 7.55596 13.15L11.1372 7.6L8.82671 4H15.7581C18.3189 4 20.4994 4.93 22.2996 6.79C24.0999 8.65 25 10.92 25 13.6V28H8.82671ZM11.1372 25.6H22.6895V13.6C22.6895 11.6 22.0156 9.9 20.6679 8.5C19.3201 7.1 17.6835 6.4 15.7581 6.4H13.1588L13.9097 7.6L9.49097 14.5C9.39471 14.66 9.34176 14.825 9.33213 14.995C9.3225 15.165 9.3562 15.33 9.43321 15.49C9.52948 15.71 9.65945 15.855 9.8231 15.925C9.98676 15.995 10.1456 16.03 10.2996 16.03C10.3574 16.03 10.5018 16 10.7329 15.94L18.0686 12.1V19.6L11.1372 23.2V25.6Z"
        fill="#999999" />
</svg>