<svg width="67" height="62" viewBox="0 0 67 62" fill="none" xmlns="http://www.w3.org/2000/svg">
    <circle cx="33.5" cy="30" r="29" fill="white" stroke="#0D0D0D" stroke-width="2" />
    <path
        d="M26.78 14H40.22C45.34 14 49.5 18.16 49.5 23.28V36.72C49.5 39.1812 48.5223 41.5416 46.782 43.282C45.0416 45.0223 42.6812 46 40.22 46H26.78C21.66 46 17.5 41.84 17.5 36.72V23.28C17.5 20.8188 18.4777 18.4584 20.218 16.718C21.9584 14.9777 24.3188 14 26.78 14ZM26.46 17.2C24.9324 17.2 23.4673 17.8069 22.3871 18.8871C21.3069 19.9673 20.7 21.4324 20.7 22.96V37.04C20.7 40.224 23.276 42.8 26.46 42.8H40.54C42.0676 42.8 43.5327 42.1931 44.6129 41.1129C45.6931 40.0327 46.3 38.5676 46.3 37.04V22.96C46.3 19.776 43.724 17.2 40.54 17.2H26.46ZM41.9 19.6C42.4304 19.6 42.9391 19.8107 43.3142 20.1858C43.6893 20.5609 43.9 21.0696 43.9 21.6C43.9 22.1304 43.6893 22.6391 43.3142 23.0142C42.9391 23.3893 42.4304 23.6 41.9 23.6C41.3696 23.6 40.8609 23.3893 40.4858 23.0142C40.1107 22.6391 39.9 22.1304 39.9 21.6C39.9 21.0696 40.1107 20.5609 40.4858 20.1858C40.8609 19.8107 41.3696 19.6 41.9 19.6ZM33.5 22C35.6217 22 37.6566 22.8429 39.1569 24.3431C40.6571 25.8434 41.5 27.8783 41.5 30C41.5 32.1217 40.6571 34.1566 39.1569 35.6569C37.6566 37.1571 35.6217 38 33.5 38C31.3783 38 29.3434 37.1571 27.8431 35.6569C26.3429 34.1566 25.5 32.1217 25.5 30C25.5 27.8783 26.3429 25.8434 27.8431 24.3431C29.3434 22.8429 31.3783 22 33.5 22ZM33.5 25.2C32.227 25.2 31.0061 25.7057 30.1059 26.6059C29.2057 27.5061 28.7 28.727 28.7 30C28.7 31.273 29.2057 32.4939 30.1059 33.3941C31.0061 34.2943 32.227 34.8 33.5 34.8C34.773 34.8 35.9939 34.2943 36.8941 33.3941C37.7943 32.4939 38.3 31.273 38.3 30C38.3 28.727 37.7943 27.5061 36.8941 26.6059C35.9939 25.7057 34.773 25.2 33.5 25.2Z"
        fill="#262626" />
</svg>