<svg width="32" height="32" viewBox="0 0 32 32" fill="none" xmlns="http://www.w3.org/2000/svg">
    <path
        d="M16.5 16C17.1531 16 17.7122 15.765 18.1773 15.295C18.6424 14.825 18.875 14.26 18.875 13.6C18.875 12.94 18.6424 12.375 18.1773 11.905C17.7122 11.435 17.1531 11.2 16.5 11.2C15.8469 11.2 15.2878 11.435 14.8227 11.905C14.3576 12.375 14.125 12.94 14.125 13.6C14.125 14.26 14.3576 14.825 14.8227 15.295C15.2878 15.765 15.8469 16 16.5 16ZM16.5 24.82C18.9146 22.58 20.7057 20.545 21.8734 18.715C23.0411 16.885 23.625 15.26 23.625 13.84C23.625 11.66 22.9372 9.875 21.5617 8.485C20.1862 7.095 18.499 6.4 16.5 6.4C14.501 6.4 12.8138 7.095 11.4383 8.485C10.0628 9.875 9.375 11.66 9.375 13.84C9.375 15.26 9.95885 16.885 11.1266 18.715C12.2943 20.545 14.0854 22.58 16.5 24.82ZM16.5 28C13.3135 25.26 10.9336 22.715 9.36016 20.365C7.78672 18.015 7 15.84 7 13.84C7 10.84 7.95495 8.45 9.86484 6.67C11.7747 4.89 13.9865 4 16.5 4C19.0135 4 21.2253 4.89 23.1352 6.67C25.0451 8.45 26 10.84 26 13.84C26 15.84 25.2133 18.015 23.6398 20.365C22.0664 22.715 19.6865 25.26 16.5 28Z"
        fill="#999999" />
</svg>