<svg width="17" height="17" viewBox="0 0 17 17" fill="none" xmlns="http://www.w3.org/2000/svg">
    <path
        d="M8.49992 9.20835C7.90964 9.20835 7.4079 9.00176 6.99471 8.58856C6.58152 8.17537 6.37492 7.67363 6.37492 7.08335C6.37492 6.49308 6.58152 5.99134 6.99471 5.57815C7.4079 5.16495 7.90964 4.95835 8.49992 4.95835C9.0902 4.95835 9.59193 5.16495 10.0051 5.57815C10.4183 5.99134 10.6249 6.49308 10.6249 7.08335C10.6249 7.67363 10.4183 8.17537 10.0051 8.58856C9.59193 9.00176 9.0902 9.20835 8.49992 9.20835ZM4.24992 16.2917V10.8198C3.80131 10.324 3.45304 9.75731 3.20513 9.11981C2.95721 8.48231 2.83325 7.80349 2.83325 7.08335C2.83325 5.50141 3.38221 4.16148 4.48013 3.06356C5.57804 1.96565 6.91797 1.41669 8.49992 1.41669C10.0819 1.41669 11.4218 1.96565 12.5197 3.06356C13.6176 4.16148 14.1666 5.50141 14.1666 7.08335C14.1666 7.80349 14.0426 8.48231 13.7947 9.11981C13.5468 9.75731 13.1985 10.324 12.7499 10.8198V16.2917L8.49992 14.875L4.24992 16.2917ZM8.49992 11.3334C9.68047 11.3334 10.6839 10.9202 11.5103 10.0938C12.3367 9.26738 12.7499 8.26391 12.7499 7.08335C12.7499 5.9028 12.3367 4.89933 11.5103 4.07294C10.6839 3.24655 9.68047 2.83335 8.49992 2.83335C7.31936 2.83335 6.31589 3.24655 5.4895 4.07294C4.66311 4.89933 4.24992 5.9028 4.24992 7.08335C4.24992 8.26391 4.66311 9.26738 5.4895 10.0938C6.31589 10.9202 7.31936 11.3334 8.49992 11.3334ZM5.66659 14.1844L8.49992 13.4584L11.3333 14.1844V11.9886C10.9201 12.2247 10.4744 12.4106 9.99627 12.5464C9.51815 12.6821 9.01936 12.75 8.49992 12.75C7.98047 12.75 7.48169 12.6821 7.00356 12.5464C6.52544 12.4106 6.07978 12.2247 5.66659 11.9886V14.1844Z"
        fill="#EAC452" />
</svg>