<svg width="32" height="32" viewBox="0 0 32 32" fill="none" xmlns="http://www.w3.org/2000/svg">
    <path
        d="M5.33325 26.6667V24H8.99992L8.46659 23.5333C7.31103 22.5111 6.49992 21.3444 6.03325 20.0333C5.56659 18.7222 5.33325 17.4 5.33325 16.0667C5.33325 13.6 6.07214 11.4056 7.54992 9.48333C9.0277 7.56111 10.9555 6.28888 13.3333 5.66666V8.46666C11.7333 9.04444 10.4444 10.0278 9.46659 11.4167C8.48881 12.8056 7.99992 14.3556 7.99992 16.0667C7.99992 17.0667 8.18881 18.0389 8.56659 18.9833C8.94436 19.9278 9.53325 20.8 10.3333 21.6L10.6666 21.9333V18.6667H13.3333V26.6667H5.33325ZM18.6666 26.3333V23.5333C20.2666 22.9556 21.5555 21.9722 22.5333 20.5833C23.511 19.1944 23.9999 17.6444 23.9999 15.9333C23.9999 14.9333 23.811 13.9611 23.4333 13.0167C23.0555 12.0722 22.4666 11.2 21.6666 10.4L21.3333 10.0667V13.3333H18.6666V5.33333H26.6666V7.99999H22.9999L23.5333 8.46666C24.6221 9.55555 25.4166 10.7389 25.9166 12.0167C26.4166 13.2944 26.6666 14.6 26.6666 15.9333C26.6666 18.4 25.9277 20.5944 24.4499 22.5167C22.9721 24.4389 21.0444 25.7111 18.6666 26.3333Z"
        fill="#0D0D0D" />
</svg>