<svg width="24" height="24" viewBox="0 0 24 24" fill="none" xmlns="http://www.w3.org/2000/svg">
    <path
        d="M12 21.357C10.6167 21.357 9.31667 21.1022 8.1 20.5926C6.88333 20.0831 5.825 19.3915 4.925 18.5179C4.025 17.6444 3.3125 16.6171 2.7875 15.4362C2.2625 14.2553 2 12.9935 2 11.6508C2 10.3081 2.2625 9.04629 2.7875 7.86537C3.3125 6.68445 4.025 5.65721 4.925 4.78365C5.825 3.91009 6.88333 3.21852 8.1 2.70894C9.31667 2.19937 10.6167 1.94458 12 1.94458C13.3833 1.94458 14.6833 2.19937 15.9 2.70894C17.1167 3.21852 18.175 3.91009 19.075 4.78365C19.975 5.65721 20.6875 6.68445 21.2125 7.86537C21.7375 9.04629 22 10.3081 22 11.6508C22 12.9935 21.7375 14.2553 21.2125 15.4362C20.6875 16.6171 19.975 17.6444 19.075 18.5179C18.175 19.3915 17.1167 20.0831 15.9 20.5926C14.6833 21.1022 13.3833 21.357 12 21.357ZM17 9.22424L18.35 8.78746L18.75 7.47712C18.2167 6.70063 17.575 6.03332 16.825 5.47522C16.075 4.91711 15.25 4.50055 14.35 4.22554L13 5.14763V6.5065L17 9.22424ZM7 9.22424L11 6.5065V5.14763L9.65 4.22554C8.75 4.50055 7.925 4.91711 7.175 5.47522C6.425 6.03332 5.78333 6.70063 5.25 7.47712L5.65 8.78746L7 9.22424ZM5.95 16.698L7.1 16.601L7.85 15.2906L6.4 11.0684L5 10.5831L4 11.3111C4 12.3626 4.15 13.3211 4.45 14.1865C4.75 15.052 5.25 15.8892 5.95 16.698ZM12 19.4158C12.4333 19.4158 12.8583 19.3834 13.275 19.3187C13.6917 19.254 14.1 19.1569 14.5 19.0275L15.2 17.5716L14.55 16.5039H9.45L8.8 17.5716L9.5 19.0275C9.9 19.1569 10.3083 19.254 10.725 19.3187C11.1417 19.3834 11.5667 19.4158 12 19.4158ZM9.75 14.5627H14.25L15.65 10.6802L12 8.20509L8.4 10.6802L9.75 14.5627ZM18.05 16.698C18.75 15.8892 19.25 15.052 19.55 14.1865C19.85 13.3211 20 12.3626 20 11.3111L19 10.6316L17.6 11.0684L16.15 15.2906L16.9 16.601L18.05 16.698Z"
        fill="#0D0D0D" />
</svg>