<svg width="29" height="25" viewBox="0 0 29 25" fill="none" xmlns="http://www.w3.org/2000/svg">
    <path
        d="M0.291992 20.8334V17.2167C0.291992 16.4848 0.48036 15.8121 0.857096 15.1985C1.23383 14.585 1.73435 14.1167 2.35866 13.7938C3.69338 13.1265 5.04963 12.6259 6.42741 12.2923C7.80519 11.9586 9.20449 11.7917 10.6253 11.7917C11.3142 11.7917 12.0085 11.8294 12.7081 11.9048C13.4078 11.9801 14.1021 12.1039 14.7909 12.2761C14.5111 12.6421 14.2689 13.0242 14.0644 13.4225C13.8599 13.8207 13.693 14.2352 13.5639 14.6657C13.0687 14.5581 12.579 14.4827 12.0946 14.4397C11.6102 14.3966 11.1205 14.3751 10.6253 14.3751C9.41977 14.3751 8.22498 14.5204 7.04095 14.811C5.85692 15.1016 4.68366 15.5376 3.52116 16.1188C3.32741 16.2265 3.17133 16.3772 3.05293 16.5709C2.93453 16.7647 2.87533 16.9799 2.87533 17.2167V18.2501H13.3055C13.3916 18.7237 13.51 19.1758 13.6607 19.6063C13.8114 20.0369 14.0052 20.4459 14.242 20.8334H0.291992ZM10.6253 10.5001C9.20449 10.5001 7.98817 9.99418 6.97637 8.98237C5.96456 7.97057 5.45866 6.75425 5.45866 5.33341C5.45866 3.91258 5.96456 2.69626 6.97637 1.68446C7.98817 0.672651 9.20449 0.166748 10.6253 0.166748C12.0462 0.166748 13.2625 0.672651 14.2743 1.68446C15.2861 2.69626 15.792 3.91258 15.792 5.33341C15.792 6.75425 15.2861 7.97057 14.2743 8.98237C13.2625 9.99418 12.0462 10.5001 10.6253 10.5001ZM23.542 5.33341C23.542 6.75425 23.0361 7.97057 22.0243 8.98237C21.0125 9.99418 19.7962 10.5001 18.3753 10.5001C18.1385 10.5001 17.8371 10.4732 17.4712 10.4194C17.1052 10.3655 16.8038 10.3063 16.567 10.2417C17.1482 9.55286 17.5949 8.78862 17.9071 7.94904C18.2192 7.10946 18.3753 6.23758 18.3753 5.33341C18.3753 4.42925 18.2192 3.55737 17.9071 2.71779C17.5949 1.87821 17.1482 1.11397 16.567 0.425081C16.8684 0.317442 17.1698 0.247477 17.4712 0.215186C17.7725 0.182894 18.0739 0.166748 18.3753 0.166748C19.7962 0.166748 21.0125 0.672651 22.0243 1.68446C23.0361 2.69626 23.542 3.91258 23.542 5.33341ZM10.6253 7.91675C11.3357 7.91675 11.9439 7.6638 12.4498 7.15789C12.9557 6.65199 13.2087 6.04383 13.2087 5.33341C13.2087 4.623 12.9557 4.01484 12.4498 3.50894C11.9439 3.00303 11.3357 2.75008 10.6253 2.75008C9.91491 2.75008 9.30675 3.00303 8.80085 3.50894C8.29494 4.01484 8.04199 4.623 8.04199 5.33341C8.04199 6.04383 8.29494 6.65199 8.80085 7.15789C9.30675 7.6638 9.91491 7.91675 10.6253 7.91675ZM20.9587 19.5417C21.6906 19.5417 22.2988 19.3265 22.7831 18.8959C23.2675 18.4654 23.5205 17.8195 23.542 16.9584C23.5635 16.2265 23.3213 15.6129 22.8154 15.1178C22.3095 14.6227 21.6906 14.3751 20.9587 14.3751C20.2267 14.3751 19.6132 14.6227 19.118 15.1178C18.6229 15.6129 18.3753 16.2265 18.3753 16.9584C18.3753 17.6904 18.6229 18.3039 19.118 18.799C19.6132 19.2942 20.2267 19.5417 20.9587 19.5417ZM20.9587 22.1251C19.5378 22.1251 18.3215 21.6192 17.3097 20.6074C16.2979 19.5956 15.792 18.3792 15.792 16.9584C15.792 15.5376 16.2979 14.3213 17.3097 13.3095C18.3215 12.2977 19.5378 11.7917 20.9587 11.7917C22.3795 11.7917 23.5958 12.2977 24.6076 13.3095C25.6194 14.3213 26.1253 15.5376 26.1253 16.9584C26.1253 17.4536 26.0661 17.9218 25.9477 18.3631C25.8293 18.8044 25.6517 19.2188 25.4149 19.6063L28.7087 22.9001L26.9003 24.7084L23.6066 21.4147C23.2191 21.6515 22.8047 21.8291 22.3633 21.9475C21.922 22.0659 21.4538 22.1251 20.9587 22.1251Z"
        fill="#999999" />
</svg>