<svg width="32" height="32" viewBox="0 0 32 32" fill="none" xmlns="http://www.w3.org/2000/svg">
    <path
        d="M12.1692 30L11.6119 25.52C11.3101 25.4033 11.0257 25.2633 10.7587 25.1C10.4917 24.9367 10.2305 24.7617 9.97512 24.575L5.83085 26.325L2 19.675L5.58706 16.945C5.56385 16.7817 5.55224 16.6242 5.55224 16.4725V15.5275C5.55224 15.3758 5.56385 15.2183 5.58706 15.055L2 12.325L5.83085 5.675L9.97512 7.425C10.2305 7.23833 10.4975 7.06333 10.7761 6.9C11.0547 6.73667 11.3333 6.59667 11.6119 6.48L12.1692 2H19.8308L20.3881 6.48C20.6899 6.59667 20.9743 6.73667 21.2413 6.9C21.5083 7.06333 21.7695 7.23833 22.0249 7.425L26.1692 5.675L30 12.325L26.4129 15.055C26.4362 15.2183 26.4478 15.3758 26.4478 15.5275V16.4725C26.4478 16.6242 26.4245 16.7817 26.3781 16.945L29.9652 19.675L26.1343 26.325L22.0249 24.575C21.7695 24.7617 21.5025 24.9367 21.2239 25.1C20.9453 25.2633 20.6667 25.4033 20.3881 25.52L19.8308 30H12.1692ZM14.607 27.2H17.3582L17.8458 23.49C18.5655 23.3033 19.233 23.0292 19.8483 22.6675C20.4635 22.3058 21.0265 21.8683 21.5373 21.355L24.9851 22.79L26.3433 20.41L23.3483 18.135C23.4643 17.8083 23.5456 17.4642 23.592 17.1025C23.6385 16.7408 23.6617 16.3733 23.6617 16C23.6617 15.6267 23.6385 15.2592 23.592 14.8975C23.5456 14.5358 23.4643 14.1917 23.3483 13.865L26.3433 11.59L24.9851 9.21L21.5373 10.68C21.0265 10.1433 20.4635 9.69417 19.8483 9.3325C19.233 8.97083 18.5655 8.69667 17.8458 8.51L17.393 4.8H14.6418L14.1542 8.51C13.4345 8.69667 12.767 8.97083 12.1517 9.3325C11.5365 9.69417 10.9735 10.1317 10.4627 10.645L7.01493 9.21L5.65672 11.59L8.65174 13.83C8.53565 14.18 8.45439 14.53 8.40796 14.88C8.36153 15.23 8.33831 15.6033 8.33831 16C8.33831 16.3733 8.36153 16.735 8.40796 17.085C8.45439 17.435 8.53565 17.785 8.65174 18.135L5.65672 20.41L7.01493 22.79L10.4627 21.32C10.9735 21.8567 11.5365 22.3058 12.1517 22.6675C12.767 23.0292 13.4345 23.3033 14.1542 23.49L14.607 27.2ZM16.0697 20.9C17.4163 20.9 18.5655 20.4217 19.5174 19.465C20.4693 18.5083 20.9453 17.3533 20.9453 16C20.9453 14.6467 20.4693 13.4917 19.5174 12.535C18.5655 11.5783 17.4163 11.1 16.0697 11.1C14.6998 11.1 13.5448 11.5783 12.6045 12.535C11.6642 13.4917 11.194 14.6467 11.194 16C11.194 17.3533 11.6642 18.5083 12.6045 19.465C13.5448 20.4217 14.6998 20.9 16.0697 20.9Z"
        fill="#0D0D0D" />
</svg>