<svg width="32" height="32" viewBox="0 0 32 32" fill="none" xmlns="http://www.w3.org/2000/svg">
    <path
        d="M10.1795 17.97C10.5538 18.35 10.9674 18.63 11.4205 18.81C11.8735 18.99 12.3462 19.08 12.8386 19.08C13.3311 19.08 13.8038 18.99 14.2568 18.81C14.7098 18.63 15.1235 18.35 15.4977 17.97L16.5614 16.89C16.9356 16.51 17.2114 16.09 17.3886 15.63C17.5659 15.17 17.6545 14.69 17.6545 14.19C17.6545 13.69 17.5659 13.215 17.3886 12.765C17.2114 12.315 16.9356 11.9 16.5614 11.52L12.0705 6.96C11.8341 6.72 11.5534 6.6 11.2284 6.6C10.9034 6.6 10.6227 6.72 10.3864 6.96L5.71818 11.73C5.48182 11.97 5.36364 12.25 5.36364 12.57C5.36364 12.89 5.48182 13.17 5.71818 13.41L10.1795 17.97ZM23.7705 27L16.8273 19.95C16.2561 20.47 15.6208 20.85 14.9216 21.09C14.2223 21.33 13.5182 21.45 12.8091 21.45C12.0212 21.45 11.258 21.3 10.5193 21C9.78068 20.7 9.11591 20.25 8.525 19.65L4.03409 15.12C3.69924 14.78 3.44318 14.385 3.26591 13.935C3.08864 13.485 3 13.03 3 12.57C3 12.11 3.08864 11.655 3.26591 11.205C3.44318 10.755 3.69924 10.36 4.03409 10.02L8.73182 5.25C9.06667 4.91 9.45568 4.65 9.89886 4.47C10.342 4.29 10.7902 4.2 11.2432 4.2C11.6962 4.2 12.1443 4.29 12.5875 4.47C13.0307 4.65 13.4197 4.91 13.7545 5.25L18.2159 9.81C18.8068 10.41 19.25 11.085 19.5455 11.835C19.8409 12.585 19.9886 13.36 19.9886 14.16C19.9886 14.88 19.8655 15.595 19.6193 16.305C19.3731 17.015 18.9939 17.66 18.4818 18.24L25.4545 25.32L23.7705 27ZM24.8636 11.4C23.7212 11.4 22.7462 10.99 21.9386 10.17C21.1311 9.35 20.7273 8.36 20.7273 7.2C20.7273 6.04 21.1311 5.05 21.9386 4.23C22.7462 3.41 23.7212 3 24.8636 3C26.0061 3 26.9811 3.41 27.7886 4.23C28.5962 5.05 29 6.04 29 7.2C29 8.36 28.5962 9.35 27.7886 10.17C26.9811 10.99 26.0061 11.4 24.8636 11.4ZM24.8636 9C25.3561 9 25.7746 8.825 26.1193 8.475C26.464 8.125 26.6364 7.7 26.6364 7.2C26.6364 6.7 26.464 6.275 26.1193 5.925C25.7746 5.575 25.3561 5.4 24.8636 5.4C24.3712 5.4 23.9527 5.575 23.608 5.925C23.2633 6.275 23.0909 6.7 23.0909 7.2C23.0909 7.7 23.2633 8.125 23.608 8.475C23.9527 8.825 24.3712 9 24.8636 9Z"
        fill="#0D0D0D" />
</svg>