<svg width="67" height="62" viewBox="0 0 67 62" fill="none" xmlns="http://www.w3.org/2000/svg">
    <circle cx="33.5" cy="30" r="29" fill="white" stroke="#0D0D0D" stroke-width="2" />
    <path
        d="M49.5 19.2941C48.3222 19.8706 47.0526 20.2494 45.7371 20.4306C47.0832 19.5576 48.1233 18.1741 48.6128 16.5106C47.3432 17.3341 45.9359 17.9106 44.4522 18.24C43.2438 16.8235 41.5459 16 39.6185 16C36.0239 16 33.087 19.1624 33.087 23.0659C33.087 23.6259 33.1482 24.1694 33.2553 24.68C27.8098 24.3835 22.9608 21.5671 19.7333 17.3012C19.1673 18.3388 18.8461 19.5576 18.8461 20.8424C18.8461 23.2965 19.9933 25.4706 21.7677 26.7059C20.6816 26.7059 19.6721 26.3765 18.7849 25.8824C18.7849 25.8824 18.7849 25.8824 18.7849 25.9318C18.7849 29.3576 21.0488 32.2235 24.0468 32.8659C23.4962 33.0306 22.9149 33.1129 22.3184 33.1129C21.9054 33.1129 21.4924 33.0635 21.0946 32.9812C21.9207 35.7647 24.3222 37.84 27.2132 37.8894C24.9799 39.8 22.1501 40.92 19.0602 40.92C18.5402 40.92 18.0201 40.8871 17.5 40.8212C20.4063 42.8306 23.8633 44 27.565 44C39.6185 44 46.2419 33.2282 46.2419 23.8894C46.2419 23.5765 46.2419 23.28 46.2266 22.9671C47.5115 21.9788 48.6128 20.7271 49.5 19.2941Z"
        fill="#262626" />
</svg>