<svg width="32" height="32" viewBox="0 0 32 32" fill="none" xmlns="http://www.w3.org/2000/svg">
    <path
        d="M26.0667 12.6001C25.3779 10.6667 24.2556 9.05008 22.7001 7.75008C21.1445 6.45008 19.3556 5.66675 17.3334 5.40008V7.53341L26.0667 12.6001ZM10.6667 17.5334L14.6667 15.2001V5.40008C13.9556 5.46675 13.2667 5.62786 12.6001 5.88341C11.9334 6.13897 11.289 6.44453 10.6667 6.80008V17.5334ZM6.20008 20.1334L8.00008 19.0667V9.00008C7.13341 9.97786 6.4723 11.0667 6.01675 12.2667C5.56119 13.4667 5.33341 14.7112 5.33341 16.0001C5.33341 16.7112 5.40564 17.4167 5.55008 18.1167C5.69453 18.8167 5.91119 19.489 6.20008 20.1334ZM10.6667 25.2001L20.0001 19.8667L16.0001 17.5334L7.53341 22.4667C7.97786 23.0223 8.45564 23.5334 8.96675 24.0001C9.47786 24.4667 10.0445 24.8667 10.6667 25.2001ZM16.0001 26.6667C17.6667 26.6667 19.2445 26.289 20.7334 25.5334C22.2223 24.7779 23.4667 23.7334 24.4667 22.4001L22.6667 21.4001L13.8667 26.4667C14.2223 26.5334 14.5779 26.5834 14.9334 26.6167C15.289 26.6501 15.6445 26.6667 16.0001 26.6667ZM25.8001 20.1334C26.089 19.489 26.3056 18.8167 26.4501 18.1167C26.5945 17.4167 26.6667 16.7112 26.6667 16.0001L17.3334 10.6001V15.2001L25.8001 20.1334ZM16.0001 29.3334C14.1556 29.3334 12.4223 28.9834 10.8001 28.2834C9.17786 27.5834 7.76675 26.6334 6.56675 25.4334C5.36675 24.2334 4.41675 22.8223 3.71675 21.2001C3.01675 19.5779 2.66675 17.8445 2.66675 16.0001C2.66675 14.1556 3.01675 12.4223 3.71675 10.8001C4.41675 9.17786 5.36675 7.76675 6.56675 6.56675C7.76675 5.36675 9.17786 4.41675 10.8001 3.71675C12.4223 3.01675 14.1556 2.66675 16.0001 2.66675C17.8445 2.66675 19.5779 3.01675 21.2001 3.71675C22.8223 4.41675 24.2334 5.36675 25.4334 6.56675C26.6334 7.76675 27.5834 9.17786 28.2834 10.8001C28.9834 12.4223 29.3334 14.1556 29.3334 16.0001C29.3334 17.8445 28.9834 19.5779 28.2834 21.2001C27.5834 22.8223 26.6334 24.2334 25.4334 25.4334C24.2334 26.6334 22.8223 27.5834 21.2001 28.2834C19.5779 28.9834 17.8445 29.3334 16.0001 29.3334Z"
        fill="#0D0D0D" />
</svg>