<svg width="67" height="62" viewBox="0 0 67 62" fill="none" xmlns="http://www.w3.org/2000/svg">
    <circle cx="33.5" cy="30" r="29" fill="white" stroke="#0D0D0D" stroke-width="2" />
    <path
        d="M30.3 34.7143L38.604 30L30.3 25.2857V34.7143ZM48.796 22.41C49.004 23.1486 49.148 24.1386 49.244 25.3957C49.356 26.6529 49.404 27.7371 49.404 28.68L49.5 30C49.5 33.4414 49.244 35.9714 48.796 37.59C48.396 39.0043 47.468 39.9157 46.028 40.3086C45.276 40.5129 43.9 40.6543 41.788 40.7486C39.708 40.8586 37.804 40.9057 36.044 40.9057L33.5 41C26.796 41 22.62 40.7486 20.972 40.3086C19.532 39.9157 18.604 39.0043 18.204 37.59C17.996 36.8514 17.852 35.8614 17.756 34.6043C17.644 33.3471 17.596 32.2629 17.596 31.32L17.5 30C17.5 26.5586 17.756 24.0286 18.204 22.41C18.604 20.9957 19.532 20.0843 20.972 19.6914C21.724 19.4871 23.1 19.3457 25.212 19.2514C27.292 19.1414 29.196 19.0943 30.956 19.0943L33.5 19C40.204 19 44.38 19.2514 46.028 19.6914C47.468 20.0843 48.396 20.9957 48.796 22.41Z"
        fill="#262626" />
</svg>